# 3ds Max Wavefront OBJ Exporter v0.97b - (c)2007 guruware
# File Created: 27.01.2013 23:07:46

#
# object 06_t
#

v  3.8240 -0.0000 7.0269
v  -3.8240 -0.0000 -7.0269
v  -10.8679 30.9788 -3.1936
v  -3.2198 30.9788 10.8601
v  -7.0171 0.0000 0.0000
v  7.0171 0.0000 0.0000
v  7.0171 26.0164 -10.5343
v  -7.0171 26.0164 -10.5343
v  2.9187 -0.0000 -4.9112
v  -2.9187 -0.0000 4.9112
v  4.4542 21.1815 9.2928
v  10.2916 21.1815 -0.5296
# 12 vertices

vn -0.2201 0.9681 0.1198
vn -0.2202 0.9681 0.1196
vn -0.4932 0.6808 -0.5415
vn 0.1844 0.6842 0.7056
vn 0.0000 0.9269 -0.3753
vn 0.0002 0.9269 -0.3753
vn 0.7112 0.6524 -0.2620
vn -0.7078 0.6556 -0.2632
vn 0.3224 0.9270 0.1918
vn 0.3227 0.9269 0.1919
vn -0.1381 0.6519 0.7456
vn 0.5882 0.6553 -0.4739
# 12 vertex normals

vt 0.6250 0.7500 0.0000
vt 0.7500 0.7500 0.0000
vt 0.7500 1.0000 0.0000
vt 0.6250 1.0000 0.0000
# 4 texture coords

g 06_t
s 1
f 1/1/1 2/2/2 3/3/3 4/4/4 
f 5/1/5 6/2/6 7/3/7 8/4/8 
f 9/1/9 10/2/10 11/3/11 12/4/12 
# 3 polygons

