# 3ds Max Wavefront OBJ Exporter v0.97b - (c)2007 guruware
# File Created: 27.01.2013 22:35:29

#
# object 16
#

v  8.8635 4.0000 -10.5631
v  0.0000 4.0000 0.0000
v  2.7079 15.5267 7.4399
v  13.2528 22.2972 1.4964
v  -13.5797 4.0000 -2.3945
v  -9.1904 22.2972 9.6651
v  7.4544 15.2567 20.4807
v  18.4621 20.3756 15.8089
v  -3.9811 20.3756 23.9775
v  11.9664 11.5035 32.8774
v  22.8300 14.9693 27.8094
v  0.3868 14.9693 35.9781
v  16.0650 4.7530 44.1382
v  26.6734 6.7512 38.3691
v  4.2302 6.7512 46.5378
v  0.0000 12.0000 -11.2314
v  0.0000 12.0000 0.0000
v  5.5848 23.5267 3.2244
v  9.0526 30.2972 -6.0049
v  -9.7267 12.0000 5.6157
v  -0.6741 30.2972 10.8422
v  15.3739 23.2567 8.8762
v  19.7962 28.3755 0.1980
v  10.0696 28.3755 17.0451
v  24.6795 19.5035 14.2487
v  28.8045 22.9692 5.3989
v  19.0778 22.9692 22.2460
v  33.1325 12.7530 19.1291
v  36.7311 14.7512 9.9754
v  27.0045 14.7512 26.8225
v  -5.8802 20.0000 -7.0078
v  0.0000 20.0000 0.0000
v  5.1728 31.5267 -0.9121
v  2.5045 38.2972 -8.4862
v  -3.1288 20.0000 8.5963
v  5.2559 38.2972 7.1179
v  14.2397 31.2567 -2.5108
v  12.4555 36.3755 -10.2408
v  15.2069 36.3755 5.3633
v  22.8587 27.5035 -4.0305
v  20.7991 30.9692 -11.7120
v  23.5506 30.9692 3.8921
v  30.6881 20.7530 -5.4111
v  28.1410 22.7512 -13.0066
v  30.8924 22.7512 2.5976
v  2.6826 26.0000 -7.3703
v  0.0000 26.0000 0.0000
v  2.8947 37.5266 3.4498
v  7.3747 44.2972 -1.7784
v  -7.7241 26.0000 1.3620
v  -3.0320 44.2972 6.9539
v  7.9687 37.2566 9.4967
v  12.9434 42.3755 4.8582
v  2.5367 42.3755 13.5904
v  12.7920 33.5035 15.2450
v  17.6126 36.9692 10.4228
v  7.2059 36.9692 19.1550
v  17.1733 26.7529 20.4665
v  21.7212 28.7512 15.3192
v  11.3145 28.7512 24.0514
v  8.3394 18.0000 -4.8147
v  -0.0000 18.0000 0.0000
v  -0.0000 29.5267 5.5290
v  8.3394 36.2972 4.1474
v  -8.3394 18.0000 -4.8148
v  -8.3394 36.2972 4.1474
v  -0.0000 29.2567 15.2204
v  8.3393 34.3755 14.7837
v  -8.3394 34.3755 14.7837
v  -0.0001 25.5035 24.4330
v  8.3393 28.9692 23.7020
v  -8.3395 28.9692 23.7020
v  -0.0001 18.7529 32.8015
v  8.3393 20.7512 31.5495
v  -8.3395 20.7512 31.5495
v  11.6429 10.0000 2.0530
v  0.0000 10.0000 0.0000
v  -4.3634 21.5267 5.2000
v  4.5702 28.2972 10.4819
v  -4.0435 10.0000 -11.1095
v  -11.1162 28.2972 -2.6806
v  -12.0115 21.2567 14.3148
v  -3.8237 26.3755 20.4854
v  -19.5102 26.3755 7.3229
v  -19.2819 17.5035 22.9793
v  -10.8618 20.9692 28.8730
v  -26.5483 20.9692 15.7105
v  -25.8862 10.7529 30.8499
v  -17.0549 12.7512 36.2536
v  -32.7413 12.7512 23.0911
v  9.3300 2.0000 11.1191
v  0.0000 2.0000 -0.0000
v  -8.2075 13.5267 1.4472
v  -3.9737 20.2972 13.4649
v  4.9644 2.0000 -13.6396
v  -8.3393 20.2972 -11.2938
v  -22.5937 13.2567 3.9839
v  -19.7627 18.3755 16.2489
v  -24.1284 18.3755 -8.5097
v  -36.2693 9.5035 6.3953
v  -33.0014 12.9693 18.5833
v  -37.3670 12.9692 -6.1754
v  -48.6919 2.7529 8.5857
v  -44.6505 4.7512 20.6373
v  -49.0161 4.7512 -4.1213
v  7.1500 24.0000 4.1281
v  0.0000 24.0000 0.0000
v  -4.1053 35.5267 2.3702
v  0.4955 42.2972 7.9700
v  0.0000 24.0000 -8.2561
v  -6.6545 42.2972 -4.4141
v  -11.3013 35.2567 6.5247
v  -7.4021 40.3755 12.5297
v  -14.5520 40.3755 0.1455
v  -18.1417 31.5035 10.4741
v  -14.0240 34.9692 16.3528
v  -21.1740 34.9692 3.9686
v  -24.3555 24.7530 14.0615
v  -19.8508 26.7512 19.7169
v  -27.0008 26.7512 7.3327
v  -0.3802 28.0000 3.7126
v  0.0000 28.0000 -0.0000
v  -0.5137 35.8716 -0.3712
v  -0.9742 37.1016 3.2835
v  3.4053 28.0000 -1.5271
v  2.8113 37.1016 -1.9562
v  -2.0004 42.9078 -1.4453
v  -2.6932 45.2371 2.0416
v  1.0923 45.2371 -3.1981
v  -4.3023 48.3616 -3.1083
v  -5.3547 51.5431 0.1187
v  -1.5692 51.5431 -5.1210
v  -7.1749 51.6543 -5.1837
v  -8.6762 55.3502 -2.2810
v  -4.8907 55.3502 -7.5207
v  -7.3379 28.0000 -1.2939
v  0.0000 28.0000 0.0000
v  2.7500 39.5266 -3.2773
v  -2.8803 46.2972 -6.6062
v  2.5484 28.0000 7.0018
v  7.0060 46.2972 1.6895
v  7.5703 39.2566 -9.0218
v  2.4099 44.3755 -12.9109
v  12.2963 44.3755 -4.6152
v  12.1525 35.5035 -14.4826
v  6.8457 38.9692 -18.1972
v  16.7321 38.9692 -9.9015
v  16.3148 28.7530 -19.4431
v  10.7489 30.7512 -22.8488
v  20.6352 30.7512 -14.5531
v  3.4668 16.0000 9.5250
v  0.0000 16.0000 -0.0000
v  -5.7316 27.5267 -1.0106
v  -5.8237 34.2972 7.8869
v  6.5155 16.0000 -7.7649
v  -2.7750 34.2972 -9.4030
v  -15.7780 27.2567 -2.7821
v  -16.8497 32.3755 5.9426
v  -13.8010 32.3755 -11.3473
v  -25.3282 23.5035 -4.4661
v  -26.0948 26.9692 4.3125
v  -23.0461 26.9692 -12.9774
v  -34.0034 16.7530 -5.9958
v  -34.2298 18.7512 2.8780
v  -31.1811 18.7512 -14.4119
v  -5.5862 22.0000 6.6574
v  0.0000 22.0000 0.0000
v  -1.7066 33.5267 -4.6890
v  -8.3526 40.2972 -0.9431
v  8.5586 22.0000 1.5091
v  5.7922 40.2972 -6.0914
v  -4.6981 33.2567 -12.9080
v  -11.6357 38.3755 -9.9635
v  2.5091 38.3755 -15.1118
v  -7.5418 29.5035 -20.7210
v  -14.3885 32.9692 -17.5269
v  -0.2437 32.9692 -22.6752
v  -10.1249 22.7530 -27.8181
v  -16.8108 24.7512 -24.1821
v  -2.6660 24.7512 -29.3304
v  -10.5077 14.0000 1.8528
v  0.0000 14.0000 0.0000
v  2.0953 25.5267 -5.7569
v  -7.1113 32.2972 -7.4787
v  6.8584 14.0000 8.1736
v  10.2548 32.2972 -1.1579
v  5.7681 25.2567 -15.8476
v  -3.0805 30.3755 -18.5534
v  14.2857 30.3755 -12.2326
v  9.2594 21.5035 -25.4399
v  0.2993 24.9692 -27.8392
v  17.6655 24.9692 -21.5184
v  12.4309 14.7530 -34.1533
v  3.2733 16.7512 -36.0100
v  20.6394 16.7512 -29.6893
v  -4.2564 8.0000 11.6942
v  0.0000 8.0000 0.0000
v  -4.5930 19.5267 -5.4737
v  -11.7013 26.2972 2.8217
v  12.2557 8.0000 -2.1610
v  4.8107 26.2972 -11.0335
v  -12.6437 19.2567 -15.0682
v  -20.5370 24.3755 -7.7083
v  -4.0250 24.3755 -21.5635
v  -20.2967 15.5035 -24.1887
v  -27.9455 18.9693 -16.5374
v  -11.4335 18.9692 -30.3927
v  -27.2486 8.7530 -32.4736
v  -34.4645 10.7512 -24.3064
v  -17.9524 10.7512 -38.1617
v  -13.2319 0.0000 7.6394
v  0.0000 0.0000 -0.0000
v  0.0000 11.5267 -8.7727
v  -13.2319 18.2972 -6.5805
v  13.2319 0.0000 7.6394
v  13.2319 18.2972 -6.5805
v  0.0000 11.2567 -24.1497
v  -13.2319 16.3756 -23.4570
v  13.2319 16.3756 -23.4570
v  0.0000 7.5035 -38.7672
v  -13.2319 10.9693 -37.6073
v  13.2319 10.9693 -37.6074
v  0.0000 0.7530 -52.0453
v  -13.2319 2.7512 -50.0587
v  13.2319 2.7512 -50.0587
v  -11.3447 6.0000 -6.5499
v  -0.0000 6.0000 -0.0000
v  6.5138 17.5267 -3.7608
v  -0.7862 24.2972 -12.6458
v  0.0000 6.0000 13.0997
v  10.5585 24.2972 7.0038
v  17.9314 17.2567 -10.3527
v  11.7446 22.3756 -19.8805
v  23.0893 22.3756 -0.2309
v  28.7849 13.5035 -16.6190
v  22.2514 16.9693 -25.9466
v  33.5961 16.9692 -6.2970
v  38.6441 6.7530 -22.3112
v  31.4967 8.7512 -31.2844
v  42.8414 8.7512 -11.6348
v  -3.0481 28.0000 -2.1534
v  0.5755 35.8716 -0.2654
v  -2.3827 37.1016 -2.4603
v  -0.3408 28.0000 3.7164
v  0.3246 37.1016 3.4095
v  2.2410 42.9078 -1.0336
v  -0.4570 45.2371 -3.3485
v  2.2504 45.2371 2.5213
v  4.8197 48.3616 -2.2230
v  2.5246 51.5431 -4.7237
v  5.2319 51.5431 1.1461
v  8.0378 51.6543 -3.7073
v  6.2456 55.3502 -6.4399
v  8.9529 55.3502 -0.5701
v  3.3972 28.0000 -1.5451
v  -0.0000 28.0000 0.0000
v  -0.0612 35.8716 0.6308
v  3.3264 37.1016 -0.8157
v  -3.0367 28.0000 -2.1695
v  -3.1075 37.1016 -1.4401
v  -0.2384 42.9078 2.4564
v  3.1215 45.2371 1.2951
v  -3.3123 45.2371 0.6707
v  -0.5127 48.3616 5.2828
v  2.8044 51.5431 4.5632
v  -3.6295 51.5431 3.9388
v  -0.8551 51.6543 8.8102
v  2.4085 55.3502 8.6417
v  -4.0253 55.3502 8.0173
# 269 vertices

vn -0.6519 0.5175 -0.5542
vn -0.0000 1.0000 -0.0000
vn -0.1561 0.8898 -0.4288
vn -0.5753 0.7999 -0.1709
vn 0.1431 0.5175 -0.8436
vn 0.3308 0.7999 -0.5007
vn 0.0745 0.9760 0.2048
vn -0.2952 0.9067 0.3012
vn 0.4198 0.9067 0.0409
vn 0.1554 0.8908 0.4270
vn -0.0718 0.8800 0.4695
vn 0.3569 0.8800 0.3135
vn 0.1853 0.8405 0.5091
vn 0.0646 0.8337 0.5484
vn 0.3030 0.8337 0.4616
vn -0.8970 0.4419 -0.0058
vn -0.4499 0.8545 -0.2597
vn -0.5818 0.7574 0.2964
vn -0.4535 0.4419 -0.7740
vn -0.0343 0.7574 -0.6520
vn 0.2308 0.9638 0.1332
vn -0.0429 0.8682 0.4943
vn 0.4066 0.8682 -0.2843
vn 0.4608 0.8467 0.2660
vn 0.2798 0.8353 0.4733
vn 0.5498 0.8353 0.0057
vn 0.5374 0.7841 0.3103
vn 0.4593 0.7759 0.4325
vn 0.6042 0.7759 0.1815
vn -0.7148 0.3724 0.5919
vn -0.5765 0.8107 0.1017
vn -0.2307 0.7097 0.6657
vn -0.8741 0.3724 -0.3118
vn -0.4444 0.7097 -0.5466
vn 0.3196 0.9459 -0.0564
vn 0.3241 0.8184 0.4746
vn 0.1422 0.8184 -0.5568
vn 0.6036 0.7902 -0.1064
vn 0.5866 0.7803 0.2169
vn 0.4771 0.7803 -0.4044
vn 0.6863 0.7172 -0.1210
vn 0.7054 0.7077 0.0404
vn 0.6490 0.7077 -0.2792
vn -0.8865 0.3253 -0.3292
vn -0.4087 0.7719 -0.4871
vn -0.7206 0.6700 0.1784
vn -0.1702 0.3253 -0.9302
vn 0.3008 0.6700 -0.6787
vn 0.2408 0.9271 0.2870
vn -0.2814 0.7733 0.5682
vn 0.6084 0.7733 -0.1784
vn 0.4325 0.7398 0.5155
vn 0.1057 0.7329 0.6721
vn 0.6435 0.7329 0.2208
vn 0.4820 0.6616 0.5744
vn 0.3411 0.6515 0.6776
vn 0.6081 0.6515 0.4536
vn -0.4554 0.3891 -0.8008
vn 0.0000 1.0000 -0.0000
vn 0.0000 0.8225 -0.5687
vn -0.5984 0.7222 -0.3470
vn 0.4554 0.3891 -0.8007
vn 0.5984 0.7222 -0.3470
vn -0.0000 0.9510 0.3091
vn -0.5048 0.8319 0.2303
vn 0.5048 0.8319 0.2303
vn -0.0000 0.8055 0.5926
vn -0.3038 0.7950 0.5251
vn 0.3038 0.7950 0.5251
vn -0.0000 0.7348 0.6783
vn -0.1581 0.7256 0.6698
vn 0.1581 0.7256 0.6698
vn 0.1598 0.4603 -0.8732
vn 0.3236 0.8641 -0.3856
vn -0.1771 0.7685 -0.6149
vn 0.8322 0.4603 -0.3090
vn 0.6363 0.7685 0.0676
vn -0.1629 0.9673 0.1942
vn -0.4612 0.8789 -0.1219
vn 0.2002 0.8789 0.4330
vn -0.3292 0.8589 0.3924
vn -0.4963 0.8474 0.1884
vn -0.0994 0.8474 0.5215
vn -0.3863 0.7993 0.4604
vn -0.4900 0.7914 0.3655
vn -0.2749 0.7914 0.5461
vn 0.6497 0.5370 -0.5380
vn 0.4343 0.8975 -0.0766
vn 0.2696 0.8098 -0.5211
vn 0.7945 0.5370 0.2834
vn 0.4316 0.8098 0.3975
vn -0.2040 0.9783 0.0360
vn -0.2357 0.9147 -0.3283
vn -0.1092 0.9147 0.3891
vn -0.4292 0.9000 0.0757
vn -0.4331 0.8895 -0.1453
vn -0.3573 0.8895 0.2847
vn -0.5143 0.8528 0.0907
vn -0.5317 0.8464 -0.0305
vn -0.4892 0.8464 0.2105
vn 0.4754 0.3405 -0.8112
vn 0.5360 0.7854 -0.3095
vn -0.0369 0.6836 -0.7289
vn 0.9402 0.3405 -0.0061
vn 0.6128 0.6836 0.3964
vn -0.3095 0.9340 0.1787
vn -0.4964 0.7890 -0.3620
vn 0.0653 0.7890 0.6109
vn -0.5656 0.7573 0.3265
vn -0.6623 0.7492 -0.0092
vn -0.3232 0.7492 0.5781
vn -0.6345 0.6806 0.3664
vn -0.7105 0.6706 0.2134
vn -0.5401 0.6706 0.5086
vn 0.9924 0.0696 0.1016
vn 0.8010 0.1532 0.5787
vn 0.9855 0.1534 0.0725
vn 0.4082 0.0696 0.9102
vn 0.3784 0.1534 0.9128
vn 0.7649 0.3311 0.5526
vn 0.9489 0.3148 -0.0217
vn 0.2774 0.3148 0.9077
vn 0.6688 0.5650 0.4832
vn 0.8551 0.4804 -0.1948
vn 0.0837 0.4804 0.8730
vn 0.5517 0.7326 0.3986
vn 0.8031 0.5339 -0.2645
vn 0.0011 0.5339 0.8455
vn -0.1711 0.3106 0.9350
vn -0.4195 0.7577 0.4999
vn 0.3179 0.6560 0.6846
vn -0.8911 0.3106 0.3309
vn -0.7294 0.6560 -0.1942
vn 0.2524 0.9197 -0.3008
vn 0.6263 0.7569 0.1866
vn -0.2926 0.7569 -0.5844
vn 0.4450 0.7216 -0.5304
vn 0.6613 0.7161 -0.2233
vn 0.1051 0.7161 -0.6901
vn 0.4926 0.6424 -0.5871
vn 0.6211 0.6322 -0.4633
vn 0.3484 0.6322 -0.6921
vn 0.8607 0.4062 -0.3070
vn 0.5438 0.8337 0.0959
vn 0.4462 0.7343 -0.5116
vn 0.7038 0.4062 0.5828
vn 0.2443 0.7343 0.6334
vn -0.2898 0.9557 -0.0511
vn -0.1359 0.8448 -0.5176
vn -0.3047 0.8448 0.4399
vn -0.5636 0.8200 -0.0994
vn -0.4514 0.8090 -0.3764
vn -0.5529 0.8090 0.1993
vn -0.6493 0.7519 -0.1145
vn -0.6149 0.7429 -0.2645
vn -0.6683 0.7429 0.0383
vn 0.7119 0.3562 0.6053
vn 0.2060 0.7984 0.5658
vn 0.7100 0.6969 0.1012
vn -0.1563 0.3562 0.9213
vn -0.4789 0.6969 0.5339
vn -0.1165 0.9402 -0.3201
vn 0.4268 0.8041 -0.4139
vn -0.5930 0.8041 -0.0427
vn -0.2165 0.7741 -0.5949
vn 0.1178 0.7650 -0.6331
vn -0.4972 0.7650 -0.4093
vn -0.2446 0.6991 -0.6719
vn -0.0848 0.6893 -0.7195
vn -0.3975 0.6893 -0.6056
vn 0.1515 0.4239 0.8930
vn -0.1832 0.8444 0.5034
vn 0.4095 0.7460 0.5252
vn -0.6900 0.4239 0.5867
vn -0.6512 0.7460 0.1391
vn 0.0958 0.9600 -0.2632
vn 0.5136 0.8569 -0.0439
vn -0.3653 0.8569 -0.3638
vn 0.1888 0.8338 -0.5188
vn 0.4332 0.8225 -0.3686
vn -0.0949 0.8225 -0.5608
vn 0.2189 0.7683 -0.6015
vn 0.3568 0.7597 -0.5436
vn 0.0761 0.7597 -0.6458
vn 0.8229 0.4791 0.3055
vn 0.3133 0.8731 0.3734
vn 0.6242 0.7792 -0.0564
vn 0.1580 0.4791 0.8634
vn -0.1640 0.7792 0.6049
vn -0.1550 0.9705 -0.1847
vn 0.1913 0.8888 -0.4164
vn -0.4433 0.8888 0.1161
vn -0.3166 0.8703 -0.3774
vn -0.0974 0.8589 -0.5027
vn -0.4782 0.8589 -0.1833
vn -0.3736 0.8137 -0.4452
vn -0.2660 0.8062 -0.5285
vn -0.4742 0.8062 -0.3538
vn 0.4107 0.5567 0.7221
vn 0.0000 0.9048 0.4259
vn 0.4509 0.8194 0.3539
vn -0.4107 0.5567 0.7221
vn -0.4509 0.8194 0.3539
vn 0.0000 0.9804 -0.1969
vn 0.3485 0.9221 -0.1683
vn -0.3485 0.9221 -0.1683
vn -0.0000 0.9086 -0.4177
vn 0.2088 0.8985 -0.3861
vn -0.2088 0.8985 -0.3861
vn -0.0000 0.8644 -0.5029
vn 0.1178 0.8583 -0.4994
vn -0.1178 0.8583 -0.4994
vn -0.4384 0.4982 0.7481
vn -0.4086 0.8817 0.2359
vn -0.0610 0.7897 0.6104
vn -0.8671 0.4982 0.0056
vn -0.5592 0.7897 -0.2524
vn 0.1985 0.9734 -0.1146
vn 0.3622 0.8981 0.2494
vn -0.0349 0.8981 -0.4384
vn 0.4099 0.8809 -0.2367
vn 0.4933 0.8698 -0.0098
vn 0.2552 0.8698 -0.4223
vn 0.4863 0.8275 -0.2807
vn 0.5477 0.8203 -0.1645
vn 0.4164 0.8203 -0.3921
vn -0.5756 0.0696 0.8148
vn -0.8973 0.1532 0.4139
vn -0.5469 0.1534 0.8230
vn -0.9934 0.0696 -0.0911
vn -0.9811 0.1534 -0.1183
vn -0.8569 0.3311 0.3952
vn -0.4468 0.3148 0.8374
vn -0.9270 0.3148 -0.2038
vn -0.7493 0.5650 0.3456
vn -0.2500 0.4804 0.8407
vn -0.8017 0.4804 -0.3556
vn -0.6181 0.7326 0.2851
vn -0.1637 0.5339 0.8295
vn -0.7372 0.5339 -0.4140
vn -0.4130 0.0696 -0.9081
vn 0.0955 0.1532 -0.9836
vn -0.4346 0.1534 -0.8874
vn 0.5799 0.0696 -0.8117
vn 0.5972 0.1534 -0.7873
vn 0.0911 0.3311 -0.9392
vn -0.4976 0.3148 -0.8083
vn 0.6437 0.3148 -0.6975
vn 0.0797 0.5650 -0.8213
vn -0.5996 0.4804 -0.6400
vn 0.7115 0.4804 -0.5128
vn 0.0657 0.7326 -0.6775
vn -0.6336 0.5339 -0.5599
vn 0.7294 0.5339 -0.4276
# 254 vertex normals

vt 0.7500 0.0000 0.0000
vt 0.8750 0.0000 0.0000
vt 0.8750 0.1250 0.0000
vt 0.7500 0.1250 0.0000
vt 1.0000 0.0000 0.0000
vt 1.0000 0.1250 0.0000
vt 0.8750 0.2500 0.0000
vt 0.7500 0.2500 0.0000
vt 1.0000 0.2500 0.0000
vt 0.8750 0.3750 0.0000
vt 0.7500 0.3750 0.0000
vt 1.0000 0.3750 0.0000
vt 0.8750 0.5000 0.0000
vt 0.7500 0.5000 0.0000
vt 1.0000 0.5000 0.0000
# 15 texture coords

g 16
s 1
f 1/1/1 2/2/2 3/3/3 4/4/4 
f 2/2/2 5/5/5 6/6/6 3/3/3 
f 4/4/4 3/3/3 7/7/7 8/8/8 
f 3/3/3 6/6/6 9/9/9 7/7/7 
f 8/8/8 7/7/7 10/10/10 11/11/11 
f 7/7/7 9/9/9 12/12/12 10/10/10 
f 11/11/11 10/10/10 13/13/13 14/14/14 
f 10/10/10 12/12/12 15/15/15 13/13/13 
f 16/1/16 17/2/2 18/3/17 19/4/18 
f 17/2/2 20/5/19 21/6/20 18/3/17 
f 19/4/18 18/3/17 22/7/21 23/8/22 
f 18/3/17 21/6/20 24/9/23 22/7/21 
f 23/8/22 22/7/21 25/10/24 26/11/25 
f 22/7/21 24/9/23 27/12/26 25/10/24 
f 26/11/25 25/10/24 28/13/27 29/14/28 
f 25/10/24 27/12/26 30/15/29 28/13/27 
f 31/1/30 32/2/2 33/3/31 34/4/32 
f 32/2/2 35/5/33 36/6/34 33/3/31 
f 34/4/32 33/3/31 37/7/35 38/8/36 
f 33/3/31 36/6/34 39/9/37 37/7/35 
f 38/8/36 37/7/35 40/10/38 41/11/39 
f 37/7/35 39/9/37 42/12/40 40/10/38 
f 41/11/39 40/10/38 43/13/41 44/14/42 
f 40/10/38 42/12/40 45/15/43 43/13/41 
f 46/1/44 47/2/2 48/3/45 49/4/46 
f 47/2/2 50/5/47 51/6/48 48/3/45 
f 49/4/46 48/3/45 52/7/49 53/8/50 
f 48/3/45 51/6/48 54/9/51 52/7/49 
f 53/8/50 52/7/49 55/10/52 56/11/53 
f 52/7/49 54/9/51 57/12/54 55/10/52 
f 56/11/53 55/10/52 58/13/55 59/14/56 
f 55/10/52 57/12/54 60/15/57 58/13/55 
f 61/1/58 62/2/59 63/3/60 64/4/61 
f 62/2/59 65/5/62 66/6/63 63/3/60 
f 64/4/61 63/3/60 67/7/64 68/8/65 
f 63/3/60 66/6/63 69/9/66 67/7/64 
f 68/8/65 67/7/64 70/10/67 71/11/68 
f 67/7/64 69/9/66 72/12/69 70/10/67 
f 71/11/68 70/10/67 73/13/70 74/14/71 
f 70/10/67 72/12/69 75/15/72 73/13/70 
f 76/1/73 77/2/59 78/3/74 79/4/75 
f 77/2/59 80/5/76 81/6/77 78/3/74 
f 79/4/75 78/3/74 82/7/78 83/8/79 
f 78/3/74 81/6/77 84/9/80 82/7/78 
f 83/8/79 82/7/78 85/10/81 86/11/82 
f 82/7/78 84/9/80 87/12/83 85/10/81 
f 86/11/82 85/10/81 88/13/84 89/14/85 
f 85/10/81 87/12/83 90/15/86 88/13/84 
f 91/1/87 92/2/59 93/3/88 94/4/89 
f 92/2/59 95/5/90 96/6/91 93/3/88 
f 94/4/89 93/3/88 97/7/92 98/8/93 
f 93/3/88 96/6/91 99/9/94 97/7/92 
f 98/8/93 97/7/92 100/10/95 101/11/96 
f 97/7/92 99/9/94 102/12/97 100/10/95 
f 101/11/96 100/10/95 103/13/98 104/14/99 
f 100/10/95 102/12/97 105/15/100 103/13/98 
f 106/1/101 107/2/59 108/3/102 109/4/103 
f 107/2/59 110/5/104 111/6/105 108/3/102 
f 109/4/103 108/3/102 112/7/106 113/8/107 
f 108/3/102 111/6/105 114/9/108 112/7/106 
f 113/8/107 112/7/106 115/10/109 116/11/110 
f 112/7/106 114/9/108 117/12/111 115/10/109 
f 116/11/110 115/10/109 118/13/112 119/14/113 
f 115/10/109 117/12/111 120/15/114 118/13/112 
f 121/1/115 122/2/59 123/3/116 124/4/117 
f 122/2/59 125/5/118 126/6/119 123/3/116 
f 124/4/117 123/3/116 127/7/120 128/8/121 
f 123/3/116 126/6/119 129/9/122 127/7/120 
f 128/8/121 127/7/120 130/10/123 131/11/124 
f 127/7/120 129/9/122 132/12/125 130/10/123 
f 131/11/124 130/10/123 133/13/126 134/14/127 
f 130/10/123 132/12/125 135/15/128 133/13/126 
f 136/1/129 137/2/2 138/3/130 139/4/131 
f 137/2/2 140/5/132 141/6/133 138/3/130 
f 139/4/131 138/3/130 142/7/134 143/8/135 
f 138/3/130 141/6/133 144/9/136 142/7/134 
f 143/8/135 142/7/134 145/10/137 146/11/138 
f 142/7/134 144/9/136 147/12/139 145/10/137 
f 146/11/138 145/10/137 148/13/140 149/14/141 
f 145/10/137 147/12/139 150/15/142 148/13/140 
f 151/1/143 152/2/59 153/3/144 154/4/145 
f 152/2/59 155/5/146 156/6/147 153/3/144 
f 154/4/145 153/3/144 157/7/148 158/8/149 
f 153/3/144 156/6/147 159/9/150 157/7/148 
f 158/8/149 157/7/148 160/10/151 161/11/152 
f 157/7/148 159/9/150 162/12/153 160/10/151 
f 161/11/152 160/10/151 163/13/154 164/14/155 
f 160/10/151 162/12/153 165/15/156 163/13/154 
f 166/1/157 167/2/59 168/3/158 169/4/159 
f 167/2/59 170/5/160 171/6/161 168/3/158 
f 169/4/159 168/3/158 172/7/162 173/8/163 
f 168/3/158 171/6/161 174/9/164 172/7/162 
f 173/8/163 172/7/162 175/10/165 176/11/166 
f 172/7/162 174/9/164 177/12/167 175/10/165 
f 176/11/166 175/10/165 178/13/168 179/14/169 
f 175/10/165 177/12/167 180/15/170 178/13/168 
f 181/1/171 182/2/2 183/3/172 184/4/173 
f 182/2/2 185/5/174 186/6/175 183/3/172 
f 184/4/173 183/3/172 187/7/176 188/8/177 
f 183/3/172 186/6/175 189/9/178 187/7/176 
f 188/8/177 187/7/176 190/10/179 191/11/180 
f 187/7/176 189/9/178 192/12/181 190/10/179 
f 191/11/180 190/10/179 193/13/182 194/14/183 
f 190/10/179 192/12/181 195/15/184 193/13/182 
f 196/1/185 197/2/59 198/3/186 199/4/187 
f 197/2/59 200/5/188 201/6/189 198/3/186 
f 199/4/187 198/3/186 202/7/190 203/8/191 
f 198/3/186 201/6/189 204/9/192 202/7/190 
f 203/8/191 202/7/190 205/10/193 206/11/194 
f 202/7/190 204/9/192 207/12/195 205/10/193 
f 206/11/194 205/10/193 208/13/196 209/14/197 
f 205/10/193 207/12/195 210/15/198 208/13/196 
f 211/1/199 212/2/2 213/3/200 214/4/201 
f 212/2/2 215/5/202 216/6/203 213/3/200 
f 214/4/201 213/3/200 217/7/204 218/8/205 
f 213/3/200 216/6/203 219/9/206 217/7/204 
f 218/8/205 217/7/204 220/10/207 221/11/208 
f 217/7/204 219/9/206 222/12/209 220/10/207 
f 221/11/208 220/10/207 223/13/210 224/14/211 
f 220/10/207 222/12/209 225/15/212 223/13/210 
f 226/1/213 227/2/2 228/3/214 229/4/215 
f 227/2/2 230/5/216 231/6/217 228/3/214 
f 229/4/215 228/3/214 232/7/218 233/8/219 
f 228/3/214 231/6/217 234/9/220 232/7/218 
f 233/8/219 232/7/218 235/10/221 236/11/222 
f 232/7/218 234/9/220 237/12/223 235/10/221 
f 236/11/222 235/10/221 238/13/224 239/14/225 
f 235/10/221 237/12/223 240/15/226 238/13/224 
f 241/1/227 122/2/2 242/3/228 243/4/229 
f 122/2/2 244/5/230 245/6/231 242/3/228 
f 243/4/229 242/3/228 246/7/232 247/8/233 
f 242/3/228 245/6/231 248/9/234 246/7/232 
f 247/8/233 246/7/232 249/10/235 250/11/236 
f 246/7/232 248/9/234 251/12/237 249/10/235 
f 250/11/236 249/10/235 252/13/238 253/14/239 
f 249/10/235 251/12/237 254/15/240 252/13/238 
f 255/1/241 256/2/59 257/3/242 258/4/243 
f 256/2/59 259/5/244 260/6/245 257/3/242 
f 258/4/243 257/3/242 261/7/246 262/8/247 
f 257/3/242 260/6/245 263/9/248 261/7/246 
f 262/8/247 261/7/246 264/10/249 265/11/250 
f 261/7/246 263/9/248 266/12/251 264/10/249 
f 265/11/250 264/10/249 267/13/252 268/14/253 
f 264/10/249 266/12/251 269/15/254 267/13/252 
# 144 polygons

